# xmcd
#
# Track frame offsets:
#	150
#	17049
#	38030
#	59057
#	74283
#	90767
#	106831
#	120405
#	132484
#	143506
#	154407
#	173469
#	189338
#
# Disc length: 2816
#
# Revision: 1
# Processed by: cddbd v1.5.1PL0 Copyright (c) Steve Scherf et al.
# Submitted via: CDex 1.51
# Normalized: r0:TRMNUM
#
DISCID=a20afe0d
DTITLE=Krausberry - Na vetvi
DYEAR=1900
DGENRE=Blues
TTITLE0=Cestny Mistr
TTITLE1=Slunecny Hrob
TTITLE2=Poselstvi Stesti
TTITLE3=Na Vetvi
TTITLE4=Hymna Osady Bobru
TTITLE5=Mejdlo
TTITLE6=Vseved
TTITLE7=Mustek
TTITLE8=Parek V Testicku
TTITLE9=Vendulka
TTITLE10=Vlakem na Kolin
TTITLE11=Drdol
TTITLE12=Souboj S Hadem
EXTD=
EXTT0=
EXTT1=
EXTT2=
EXTT3=
EXTT4=
EXTT5=
EXTT6=
EXTT7=
EXTT8=
EXTT9=
EXTT10=
EXTT11=
EXTT12=
PLAYORDER=
